<svg width="17" height="16" viewBox="0 0 17 16" fill="none" xmlns="http://www.w3.org/2000/svg">
<path d="M8.5001 0.970337C8.3039 0.970337 8.10719 1.05541 7.99619 1.22581L5.52705 5.03088L1.14424 6.20393C0.948041 6.25613 0.792397 6.40388 0.729397 6.59768C0.666997 6.79088 0.705894 7.00355 0.833694 7.16135L3.68955 10.6864L3.45166 15.2156C3.44086 15.4184 3.53336 15.613 3.69776 15.7324C3.74526 15.7671 3.79849 15.792 3.85244 15.811C3.86785 15.8164 3.88357 15.8186 3.89932 15.8227C3.93952 15.8333 3.97972 15.8405 4.02119 15.8426C4.03111 15.8431 4.04055 15.8473 4.05049 15.8473C4.05917 15.8473 4.06759 15.843 4.07627 15.8426C4.14053 15.8399 4.20442 15.8309 4.26612 15.8074L8.5001 14.1821L12.7353 15.8074C12.8049 15.8338 12.8771 15.8473 12.9497 15.8473C13.0745 15.8473 13.1986 15.808 13.3024 15.7324C13.4668 15.613 13.5593 15.4184 13.5485 15.2156L13.3118 10.6864L16.1665 7.16135C16.2937 7.00355 16.3338 6.79088 16.2708 6.59768C16.2078 6.40448 16.0522 6.25673 15.856 6.20393L11.4731 5.03088L9.00401 1.22581C8.89361 1.05541 8.6963 0.970337 8.5001 0.970337ZM8.5001 2.65432L10.4677 5.68362L10.7185 6.07034L11.1638 6.18987L14.6524 7.12385L12.379 9.93167L12.0896 10.2891L12.113 10.7496L12.3028 14.3567L8.93018 13.0617L8.5001 12.8965V2.65432Z" fill="#FF9C41"/>
</svg>
