<svg width="16" height="16" viewBox="0 0 16 16" fill="none" xmlns="http://www.w3.org/2000/svg">
<path d="M5.33328 13.8667H4.26662C3.67728 13.8667 3.19995 13.3894 3.19995 12.8V3.20003C3.19995 2.6107 3.67728 2.13336 4.26662 2.13336H5.33328C5.92262 2.13336 6.39995 2.6107 6.39995 3.20003V12.8C6.39995 13.3894 5.92262 13.8667 5.33328 13.8667ZM11.7333 13.8667H10.6666C10.0773 13.8667 9.59995 13.3894 9.59995 12.8V3.20003C9.59995 2.6107 10.0773 2.13336 10.6666 2.13336H11.7333C12.3226 2.13336 12.8 2.6107 12.8 3.20003V12.8C12.8 13.3894 12.3226 13.8667 11.7333 13.8667Z" fill="white"/>
</svg>
