<svg width="28" height="28" viewBox="0 0 28 28" fill="none" xmlns="http://www.w3.org/2000/svg">
<rect width="28" height="28" rx="8" fill="#00D971"/>
<path d="M5.44699 3.54663C4.39691 3.54663 3.54639 4.39715 3.54639 5.44724V22.5527C3.54639 23.6028 4.39691 24.4533 5.44699 24.4533H6.92627C6.59937 23.8917 6.3973 23.2483 6.3973 22.5527V5.44724C6.3973 4.75162 6.59937 4.10826 6.92627 3.54663H5.44699ZM10.1985 3.54663C9.14842 3.54663 8.2979 4.39715 8.2979 5.44724V22.5527C8.2979 23.6028 9.14842 24.4533 10.1985 24.4533H22.5524C23.6025 24.4533 24.4531 23.6028 24.4531 22.5527V9.7236C24.4531 9.47177 24.3533 9.23036 24.1746 9.05171L18.948 3.82504C18.7693 3.64638 18.5279 3.54663 18.2761 3.54663H10.1985ZM17.8009 5.35629L22.6434 10.1988H18.7512C18.2267 10.1988 17.8009 9.77302 17.8009 9.24845V5.35629ZM13.0494 14H19.7015C20.2261 14 20.6518 14.4257 20.6518 14.9503C20.6518 15.4748 20.2261 15.9006 19.7015 15.9006H13.0494C12.5248 15.9006 12.0991 15.4748 12.0991 14.9503C12.0991 14.4257 12.5248 14 13.0494 14ZM13.0494 17.8012H17.8009C18.3255 17.8012 18.7512 18.2269 18.7512 18.7515C18.7512 19.276 18.3255 19.7018 17.8009 19.7018H13.0494C12.5248 19.7018 12.0991 19.276 12.0991 18.7515C12.0991 18.2269 12.5248 17.8012 13.0494 17.8012Z" fill="white"/>
</svg>
