<svg width="68" height="48" viewBox="0 0 68 48" fill="none" xmlns="http://www.w3.org/2000/svg">
<path d="M18.3999 0C12.3869 0 7.29362 4.07686 5.71553 9.6H2.7999C2.48188 9.5955 2.16613 9.65425 1.871 9.77285C1.57588 9.89144 1.30727 10.0675 1.08078 10.2908C0.854293 10.5141 0.674446 10.7802 0.551691 11.0736C0.428937 11.367 0.365723 11.6819 0.365723 12C0.365723 12.3181 0.428937 12.6329 0.551691 12.9264C0.674446 13.2198 0.854293 13.4859 1.08078 13.7092C1.30727 13.9325 1.57588 14.1086 1.871 14.2271C2.16613 14.3457 2.48188 14.4045 2.7999 14.4H5.26084C5.87245 21.1041 11.543 26.4 18.3999 26.4C25.6616 26.4 31.5999 20.4617 31.5999 13.2C31.5999 12.9486 31.5764 12.7027 31.5624 12.4547C31.5893 12.3047 31.6019 12.1524 31.5999 12C31.5999 10.6439 32.6438 9.6 33.9999 9.6C35.356 9.6 36.3999 10.6439 36.3999 12C36.3979 12.1524 36.4105 12.3047 36.4374 12.4547C36.4234 12.7027 36.3999 12.9486 36.3999 13.2C36.3999 20.4617 42.3382 26.4 49.5999 26.4C56.4568 26.4 62.1274 21.1041 62.739 14.4H65.1999C65.5179 14.4045 65.8337 14.3457 66.1288 14.2271C66.4239 14.1086 66.6925 13.9325 66.919 13.7092C67.1455 13.4859 67.3254 13.2198 67.4481 12.9264C67.5709 12.6329 67.6341 12.3181 67.6341 12C67.6341 11.6819 67.5709 11.367 67.4481 11.0736C67.3254 10.7802 67.1455 10.5141 66.919 10.2908C66.6925 10.0675 66.4239 9.89144 66.1288 9.77285C65.8337 9.65425 65.5179 9.5955 65.1999 9.6H62.2843C60.7062 4.07686 55.6129 0 49.5999 0C44.8553 0 40.6868 2.54055 38.3593 6.32344C37.1424 5.38365 35.6405 4.8 33.9999 4.8C32.3593 4.8 30.8574 5.38365 29.6405 6.32344C27.313 2.54055 23.1445 0 18.3999 0ZM18.3999 4.8C23.0675 4.8 26.7999 8.53238 26.7999 13.2C26.7999 17.8676 23.0675 21.6 18.3999 21.6C13.7323 21.6 9.99991 17.8676 9.99991 13.2C9.99991 8.53238 13.7323 4.8 18.3999 4.8ZM49.5999 4.8C54.2675 4.8 57.9999 8.53238 57.9999 13.2C57.9999 17.8676 54.2675 21.6 49.5999 21.6C44.9323 21.6 41.1999 17.8676 41.1999 13.2C41.1999 8.53238 44.9323 4.8 49.5999 4.8ZM29.1999 31.2C21.9327 31.2 22.1391 40.8 14.7999 40.8C6.65911 40.8 7.5999 33.6 7.5999 33.6C7.5999 33.6 5.1999 36.2304 5.1999 39.6C5.1999 45.3624 11.2748 48 19.5812 48C26.711 48 31.4214 46.4656 33.9999 43.9969C36.5784 46.4656 41.2888 48 48.4187 48C56.7251 48 62.7999 45.3624 62.7999 39.6C62.7999 36.2304 60.3999 33.6 60.3999 33.6C60.3999 33.6 61.3407 40.8 53.1999 40.8C45.8607 40.8 46.0671 31.2 38.7999 31.2C36.8369 31.2 35.2176 31.8611 33.9999 32.9203C32.7823 31.8611 31.1629 31.2 29.1999 31.2Z" fill="#141927"/>
</svg>
