<svg width="28" height="28" viewBox="0 0 28 28" fill="none" xmlns="http://www.w3.org/2000/svg">
<rect width="28" height="28" rx="8" fill="#FF2D55"/>
<path d="M8.77305 3.47198C5.88619 3.47198 3.54639 6.27975 3.54639 9.74398V22.288C3.54639 23.4431 4.32603 24.3787 5.28861 24.3787H8.77305H13.9997H22.7108C23.663 24.3787 24.4531 23.4306 24.4531 22.288V9.74398C24.4531 6.29269 22.1025 3.47198 19.2264 3.47198H8.77305ZM12.6607 5.56265H19.2264C21.1606 5.56265 22.7108 7.42295 22.7108 9.74398V22.288H13.9997V9.74398C13.9997 8.13493 13.4907 6.67288 12.6607 5.56265ZM17.4842 7.65332C17.0221 7.65332 16.579 7.87358 16.2522 8.26566C15.9255 8.65774 15.7419 9.18951 15.7419 9.74398C15.7419 10.2985 15.9255 10.8302 16.2522 11.2223C16.579 11.6144 17.0221 11.8347 17.4842 11.8347V19.152H19.2264H20.9686V14.9707H19.2264V9.74398C19.2264 9.18951 19.0428 8.65774 18.7161 8.26566C18.3894 7.87358 17.9462 7.65332 17.4842 7.65332ZM7.03083 9.74398H10.5153C10.9961 9.74398 11.3864 10.2123 11.3864 10.7893C11.3864 11.3663 10.9961 11.8347 10.5153 11.8347H7.03083C6.54998 11.8347 6.15972 11.3663 6.15972 10.7893C6.15972 10.2123 6.54998 9.74398 7.03083 9.74398Z" fill="white"/>
</svg>
