<svg width="58" height="54" viewBox="0 0 58 54" fill="none" xmlns="http://www.w3.org/2000/svg">
<path d="M15.908 0.599976C7.23201 0.599976 0.200195 7.63179 0.200195 16.3078C0.200195 31.5262 18.0127 46.0839 26.1127 52.4343C26.1143 52.4343 26.1158 52.4343 26.1174 52.4343C26.9483 53.0601 27.96 53.399 29.0002 53.4C30.0388 53.3979 31.0487 53.0591 31.8783 52.4343H31.8877C31.9429 52.3911 32.0191 52.3284 32.0752 52.2843C32.0807 52.2801 32.0885 52.2746 32.0939 52.2703C32.0955 52.2687 32.0971 52.2672 32.0986 52.2656C40.2827 45.8395 57.8002 31.4095 57.8002 16.3078C57.8002 7.63179 50.7684 0.599976 42.0924 0.599976C33.8004 0.599976 29.0002 7.79998 29.0002 7.79998C29.0002 7.79998 24.2 0.599976 15.908 0.599976ZM37.7424 12.614C38.1864 12.5252 38.6002 12.8636 38.6002 13.3172V19.2468C38.6002 19.602 38.3482 19.9085 38.0002 19.9781L31.4002 21.9562V34.6265C31.4002 38.1905 30.182 41.4 25.958 41.4C23.222 41.4 21.8002 39.8109 21.8002 37.4109C21.8002 31.1613 29.0002 33.3725 29.0002 30.3797V15L37.7424 12.614Z" fill="#21283F"/>
</svg>
