<svg width="28" height="28" viewBox="0 0 28 28" fill="none" xmlns="http://www.w3.org/2000/svg">
<rect width="28" height="28" rx="8" fill="#FF9C41"/>
<path d="M13.9997 3.64404C13.6037 3.64404 13.2238 3.83558 12.9438 4.17651C12.6637 4.51745 12.5064 4.97986 12.5064 5.46201C12.5065 5.79133 12.5801 6.11442 12.7193 6.39678C12.8585 6.67914 13.0581 6.91016 13.2968 7.06517L10.3437 13.8062L6.32597 10.9284C6.46123 10.6492 6.53273 10.3311 6.53305 10.0069C6.53305 9.52478 6.37572 9.06238 6.09567 8.72144C5.81561 8.38051 5.43578 8.18897 5.03972 8.18897C4.64366 8.18897 4.26383 8.38051 3.98377 8.72144C3.70372 9.06238 3.54639 9.52478 3.54639 10.0069C3.54639 10.4891 3.70372 10.9515 3.98377 11.2924C4.26383 11.6334 4.64366 11.8249 5.03972 11.8249C5.08942 11.8244 5.13906 11.8208 5.18847 11.8143L5.78639 19.0968H8.02639H17.7331H19.9731H22.2131L22.811 11.816C22.8604 11.822 22.91 11.825 22.9597 11.8249C23.3558 11.8249 23.7356 11.6334 24.0157 11.2924C24.2957 10.9515 24.4531 10.4891 24.4531 10.0069C24.4531 9.52478 24.2957 9.06238 24.0157 8.72144C23.7356 8.38051 23.3558 8.18897 22.9597 8.18897C22.5637 8.18897 22.1838 8.38051 21.9038 8.72144C21.6237 9.06238 21.4664 9.52478 21.4664 10.0069C21.4667 10.3311 21.5382 10.6492 21.6735 10.9284L17.6558 13.8062L14.7026 7.06517C14.9413 6.91016 15.1409 6.67914 15.2801 6.39678C15.4193 6.11442 15.4929 5.79133 15.4931 5.46201C15.4931 4.97986 15.3357 4.51745 15.0557 4.17651C14.7756 3.83558 14.3958 3.64404 13.9997 3.64404ZM5.78639 20.9148V22.7327C5.78639 23.7372 6.45465 24.5507 7.27972 24.5507H20.7197C21.5448 24.5507 22.2131 23.7372 22.2131 22.7327V20.9148H5.78639Z" fill="white"/>
</svg>
