<svg width="28" height="28" viewBox="0 0 28 28" fill="none" xmlns="http://www.w3.org/2000/svg">
<rect width="28" height="28" rx="8" fill="#FF2D55"/>
<path d="M13.4988 3.5651C13.258 3.56857 13.0286 3.65977 12.8608 3.8187C12.6931 3.97763 12.6007 4.19129 12.604 4.4128V6.24214C11.552 6.59116 10.786 7.51271 10.786 8.59414C10.786 9.00928 10.9097 9.39588 11.1074 9.74237L7.41818 16.9568H4.42315C3.92139 16.9568 3.51416 17.3315 3.51416 17.7931C3.51416 18.2547 3.92139 18.6293 4.42315 18.6293H6.56246L4.42315 22.8107V23.6469L5.33213 24.4832L6.24112 23.6469V22.9985L13.0585 11.0605C13.2071 11.0839 13.3576 11.1029 13.513 11.1029C13.6678 11.1029 13.8177 11.0838 13.9657 11.0605L17.3336 16.9568H14.422V16.1205C14.4237 16.0087 14.4009 15.8976 14.3551 15.794C14.3092 15.6903 14.2413 15.5962 14.1552 15.5171C14.0691 15.4381 13.9667 15.3757 13.8539 15.3338C13.7412 15.2918 13.6204 15.2711 13.4988 15.2728C13.258 15.2763 13.0286 15.3675 12.8608 15.5264C12.6931 15.6854 12.6007 15.899 12.604 16.1205V16.9568H11.5104L10.5535 18.6293H12.604V19.4656C12.6023 19.5764 12.6246 19.6864 12.6695 19.7893C12.7144 19.8921 12.7811 19.9857 12.8657 20.0646C12.9502 20.1435 13.051 20.2062 13.1621 20.249C13.2733 20.2918 13.3925 20.3138 13.513 20.3138C13.6335 20.3138 13.7527 20.2918 13.8639 20.249C13.975 20.2062 14.0758 20.1435 14.1603 20.0646C14.2449 19.9857 14.3116 19.8921 14.3565 19.7893C14.4014 19.6864 14.4237 19.5764 14.422 19.4656V18.6293H18.2887L20.7849 22.9985V23.6469L21.6939 24.4832L22.6029 23.6469V22.8107L15.9186 9.74237C16.1163 9.39588 16.24 9.00928 16.24 8.59414C16.24 7.51271 15.474 6.59116 14.422 6.24214V4.4128C14.4237 4.30092 14.4009 4.18987 14.3551 4.08622C14.3092 3.98257 14.2413 3.88844 14.1552 3.80939C14.0691 3.73035 13.9667 3.668 13.8539 3.62604C13.7412 3.58408 13.6204 3.56336 13.4988 3.5651V3.5651ZM13.4615 7.76767C13.4964 7.76952 13.5314 7.76952 13.5663 7.76767C14.0513 7.79342 14.422 8.13991 14.422 8.59414C14.422 9.0659 14.0258 9.4304 13.513 9.4304C13.0002 9.4304 12.604 9.0659 12.604 8.59414C12.604 8.13935 12.9756 7.79264 13.4615 7.76767ZM21.4258 16.9568L22.2815 18.6293H23.5118C24.0136 18.6293 24.4208 18.2547 24.4208 17.7931C24.4208 17.3315 24.0136 16.9568 23.5118 16.9568H21.4258Z" fill="white"/>
</svg>
