<svg width="28" height="28" viewBox="0 0 28 28" fill="none" xmlns="http://www.w3.org/2000/svg">
<rect width="28" height="28" rx="8" fill="#00D971"/>
<path d="M24.1468 9.0089L17.3521 3.78223C17.1556 3.63106 16.8901 3.54663 16.6131 3.54663H5.63705C4.48196 3.54663 3.54639 4.2663 3.54639 5.15484V22.8451C3.54639 23.7336 4.48196 24.4533 5.63705 24.4533H22.3624C23.5175 24.4533 24.453 23.7336 24.453 22.8451V9.5774C24.453 9.36431 24.3433 9.16007 24.1468 9.0089ZM17.1357 18.8246H8.77305C8.19603 18.8246 7.72772 18.4651 7.72772 18.0205C7.72772 17.5758 8.19603 17.2164 8.77305 17.2164H17.1357C17.7138 17.2164 18.1811 17.5758 18.1811 18.0205C18.1811 18.4651 17.7138 18.8246 17.1357 18.8246ZM19.2264 15.6082H8.77305C8.19603 15.6082 7.72772 15.2487 7.72772 14.8041C7.72772 14.3602 8.19603 14 8.77305 14H19.2264C19.8045 14 20.2717 14.3602 20.2717 14.8041C20.2717 15.2487 19.8045 15.6082 19.2264 15.6082ZM17.1357 9.97945C16.5587 9.97945 16.0904 9.61921 16.0904 9.17535V5.07764L22.4627 9.97945H17.1357Z" fill="white"/>
</svg>
